<svg xmlns="http://www.w3.org/2000/svg" width="24" height="25" viewBox="0 0 24 25" fill="none">
  <path d="M22 4.25H2C1.59 4.25 1.25 3.91 1.25 3.5C1.25 3.09 1.59 2.75 2 2.75H22C22.41 2.75 22.75 3.09 22.75 3.5C22.75 3.91 22.41 4.25 22 4.25Z" fill="white"/>
  <path d="M11 10.25H2C1.59 10.25 1.25 9.91 1.25 9.5C1.25 9.09 1.59 8.75 2 8.75H11C11.41 8.75 11.75 9.09 11.75 9.5C11.75 9.91 11.41 10.25 11 10.25Z" fill="white"/>
  <path d="M8 16.25H2C1.59 16.25 1.25 15.91 1.25 15.5C1.25 15.09 1.59 14.75 2 14.75H8C8.41 14.75 8.75 15.09 8.75 15.5C8.75 15.91 8.41 16.25 8 16.25Z" fill="white"/>
  <path d="M6 22.25H2C1.59 22.25 1.25 21.91 1.25 21.5C1.25 21.09 1.59 20.75 2 20.75H6C6.41 20.75 6.75 21.09 6.75 21.5C6.75 21.91 6.41 22.25 6 22.25Z" fill="white"/>
  <path d="M21.8599 8.18C21.2699 7.73 20.4599 7.64 19.5099 7.9L15.1599 9.08C13.9899 9.4 13.2699 10.35 13.2699 11.55V14.1V17.78C12.8499 17.54 12.3599 17.39 11.8399 17.39C10.2299 17.39 8.90991 18.7 8.90991 20.32C8.90991 21.93 10.2199 23.25 11.8399 23.25C13.4599 23.25 14.7699 21.94 14.7699 20.32V14.67L21.2499 12.9V16.33C20.8299 16.09 20.3399 15.94 19.8199 15.94C18.2099 15.94 16.8899 17.25 16.8899 18.87C16.8899 20.48 18.1999 21.8 19.8199 21.8C21.4399 21.8 22.7499 20.49 22.7499 18.87V11.92V10.37C22.7499 9.36 22.4499 8.62 21.8599 8.18ZM11.8399 21.75C11.0499 21.75 10.4099 21.11 10.4099 20.32C10.4099 19.53 11.0499 18.89 11.8399 18.89C12.6299 18.89 13.2699 19.53 13.2699 20.32C13.2699 21.11 12.6299 21.75 11.8399 21.75ZM19.8199 20.3C19.0299 20.3 18.3899 19.66 18.3899 18.87C18.3899 18.08 19.0299 17.44 19.8199 17.44C20.6099 17.44 21.2499 18.08 21.2499 18.87C21.2499 19.66 20.6099 20.3 19.8199 20.3Z" fill="white"/>
</svg>
